<mxfile host="www.draw.io" modified="2020-01-11T17:09:37.417Z" agent="Mozilla/5.0 (Windows NT 10.0; Win64; x64) AppleWebKit/537.36 (KHTML, like Gecko) Chrome/79.0.3945.117 Safari/537.36" etag="2cHIE1rS9ngSf7AXG7-c" version="12.5.1" type="github">
  <diagram id="XMVOGbKt86vhYoANAY7P" name="Page-1">
    <mxGraphModel dx="2500" dy="933" grid="1" gridSize="10" guides="1" tooltips="1" connect="1" arrows="1" fold="1" page="1" pageScale="1" pageWidth="827" pageHeight="1169" math="0" shadow="0">
      <root>
        <mxCell id="0"/>
        <mxCell id="1" parent="0"/>
        <mxCell id="bwAEqejOgfns9-r_lzPc-129" value="" style="rounded=1;whiteSpace=wrap;html=1;fillColor=#f5f5f5;strokeColor=#666666;fontColor=#333333;" vertex="1" parent="1">
          <mxGeometry x="829" y="510" width="451" height="100" as="geometry"/>
        </mxCell>
        <mxCell id="bwAEqejOgfns9-r_lzPc-1" value="&lt;font style=&quot;font-size: 18px&quot;&gt;&lt;b style=&quot;font-size: 14px&quot;&gt;&lt;font color=&quot;#333333&quot; style=&quot;font-size: 14px&quot;&gt;资源及管理器&lt;br&gt;&lt;br&gt;&lt;br&gt;&lt;br&gt;&lt;br&gt;&lt;br&gt;&lt;br&gt;&lt;br&gt;&lt;/font&gt;&lt;/b&gt;&lt;br&gt;&lt;/font&gt;" style="rounded=1;whiteSpace=wrap;html=1;strokeColor=#82b366;fillColor=#d5e8d4;" vertex="1" parent="1">
          <mxGeometry x="400" y="1350" width="800" height="210" as="geometry"/>
        </mxCell>
        <mxCell id="bwAEqejOgfns9-r_lzPc-2" value="&lt;font style=&quot;font-size: 18px&quot;&gt;&lt;b style=&quot;font-size: 14px&quot;&gt;&lt;font color=&quot;#333333&quot; style=&quot;font-size: 14px&quot;&gt;核心管理器&lt;br&gt;&lt;br&gt;&lt;br&gt;&lt;/font&gt;&lt;/b&gt;&lt;br&gt;&lt;/font&gt;" style="rounded=1;whiteSpace=wrap;html=1;strokeColor=#6c8ebf;fillColor=#dae8fc;" vertex="1" parent="1">
          <mxGeometry x="240" y="1560" width="960" height="90" as="geometry"/>
        </mxCell>
        <mxCell id="bwAEqejOgfns9-r_lzPc-3" value="&lt;font color=&quot;#ffffff&quot;&gt;网络层控制器&lt;/font&gt;" style="rounded=1;whiteSpace=wrap;html=1;fillColor=#66B2FF;strokeColor=#6c8ebf;" vertex="1" parent="1">
          <mxGeometry x="665" y="1600" width="120" height="40" as="geometry"/>
        </mxCell>
        <mxCell id="bwAEqejOgfns9-r_lzPc-4" value="&lt;font color=&quot;#ffffff&quot;&gt;骨骼动画管理器&lt;/font&gt;" style="rounded=1;whiteSpace=wrap;html=1;fillColor=#67AB9F;strokeColor=#4D8077;" vertex="1" parent="1">
          <mxGeometry x="893" y="1453.5" width="120" height="40" as="geometry"/>
        </mxCell>
        <mxCell id="bwAEqejOgfns9-r_lzPc-5" value="&lt;font color=&quot;#ffffff&quot;&gt;缓存池管理器&lt;/font&gt;" style="rounded=1;whiteSpace=wrap;html=1;fillColor=#67AB9F;strokeColor=#4D8077;" vertex="1" parent="1">
          <mxGeometry x="840" y="1506" width="120" height="40" as="geometry"/>
        </mxCell>
        <mxCell id="bwAEqejOgfns9-r_lzPc-6" value="&lt;font color=&quot;#ffffff&quot;&gt;回合加载管理器&lt;/font&gt;" style="rounded=1;whiteSpace=wrap;html=1;fillColor=#67AB9F;strokeColor=#4D8077;" vertex="1" parent="1">
          <mxGeometry x="745" y="1452" width="120" height="40" as="geometry"/>
        </mxCell>
        <mxCell id="bwAEqejOgfns9-r_lzPc-7" value="&lt;font style=&quot;font-size: 14px&quot;&gt;&lt;font color=&quot;#333333&quot; style=&quot;font-size: 14px&quot;&gt;&lt;b&gt;第三方类库&lt;br&gt;&lt;/b&gt;&lt;/font&gt;&lt;br&gt;&lt;br&gt;&lt;br&gt;&lt;/font&gt;" style="rounded=1;whiteSpace=wrap;html=1;strokeColor=#666666;fillColor=#f5f5f5;fontColor=#333333;" vertex="1" parent="1">
          <mxGeometry x="240" y="1650" width="960" height="80" as="geometry"/>
        </mxCell>
        <mxCell id="bwAEqejOgfns9-r_lzPc-8" value="&lt;font color=&quot;#ffffff&quot;&gt;特效托管管理器&lt;/font&gt;" style="rounded=1;whiteSpace=wrap;html=1;fillColor=#67AB9F;strokeColor=#4D8077;" vertex="1" parent="1">
          <mxGeometry x="1042" y="1453.5" width="120" height="40" as="geometry"/>
        </mxCell>
        <mxCell id="bwAEqejOgfns9-r_lzPc-9" value="&lt;font color=&quot;#ffffff&quot;&gt;DoTween&lt;/font&gt;" style="rounded=1;whiteSpace=wrap;html=1;fillColor=#B3B3B3;strokeColor=#666666;fontColor=#333333;" vertex="1" parent="1">
          <mxGeometry x="260" y="1681" width="120" height="40" as="geometry"/>
        </mxCell>
        <mxCell id="bwAEqejOgfns9-r_lzPc-10" value="&lt;span style=&quot;text-align: left ; white-space: nowrap&quot;&gt;&lt;font color=&quot;#ffffff&quot;&gt;protoc-gen-lua&lt;/font&gt;&lt;/span&gt;" style="rounded=1;whiteSpace=wrap;html=1;fillColor=#B3B3B3;strokeColor=#666666;fontColor=#333333;" vertex="1" parent="1">
          <mxGeometry x="463" y="1681" width="120" height="40" as="geometry"/>
        </mxCell>
        <mxCell id="bwAEqejOgfns9-r_lzPc-11" value="&lt;span style=&quot;text-align: left ; white-space: nowrap&quot;&gt;&lt;font color=&quot;#ffffff&quot;&gt;PlayMaker&lt;br&gt;&lt;/font&gt;&lt;/span&gt;" style="rounded=1;whiteSpace=wrap;html=1;fillColor=#B3B3B3;strokeColor=#666666;fontColor=#333333;" vertex="1" parent="1">
          <mxGeometry x="665" y="1681" width="120" height="40" as="geometry"/>
        </mxCell>
        <mxCell id="bwAEqejOgfns9-r_lzPc-12" value="&lt;span style=&quot;text-align: left ; white-space: nowrap&quot;&gt;&lt;font color=&quot;#ffffff&quot;&gt;Flux&lt;br&gt;&lt;/font&gt;&lt;/span&gt;" style="rounded=1;whiteSpace=wrap;html=1;fillColor=#B3B3B3;strokeColor=#666666;fontColor=#333333;" vertex="1" parent="1">
          <mxGeometry x="868" y="1681" width="120" height="40" as="geometry"/>
        </mxCell>
        <mxCell id="bwAEqejOgfns9-r_lzPc-13" value="&lt;span style=&quot;text-align: left ; white-space: nowrap&quot;&gt;&lt;font color=&quot;#ffffff&quot;&gt;ToLua 5.1&lt;br&gt;&lt;/font&gt;&lt;/span&gt;" style="rounded=1;whiteSpace=wrap;html=1;fillColor=#B3B3B3;strokeColor=#666666;fontColor=#333333;" vertex="1" parent="1">
          <mxGeometry x="1070" y="1681" width="120" height="40" as="geometry"/>
        </mxCell>
        <mxCell id="bwAEqejOgfns9-r_lzPc-14" value="&lt;font color=&quot;#ffffff&quot;&gt;骨骼动画&lt;/font&gt;" style="rounded=1;whiteSpace=wrap;html=1;fillColor=#97D077;strokeColor=#82B366;" vertex="1" parent="1">
          <mxGeometry x="583" y="1396" width="80" height="40" as="geometry"/>
        </mxCell>
        <mxCell id="bwAEqejOgfns9-r_lzPc-15" value="&lt;font color=&quot;#ffffff&quot;&gt;模型预制件&lt;/font&gt;" style="rounded=1;whiteSpace=wrap;html=1;fillColor=#97D077;strokeColor=#82B366;" vertex="1" parent="1">
          <mxGeometry x="671" y="1396" width="80" height="40" as="geometry"/>
        </mxCell>
        <mxCell id="bwAEqejOgfns9-r_lzPc-16" value="&lt;font color=&quot;#ffffff&quot;&gt;Buff预制件&lt;/font&gt;" style="rounded=1;whiteSpace=wrap;html=1;fillColor=#97D077;strokeColor=#82B366;" vertex="1" parent="1">
          <mxGeometry x="1022" y="1396" width="80" height="40" as="geometry"/>
        </mxCell>
        <mxCell id="bwAEqejOgfns9-r_lzPc-17" value="&lt;font color=&quot;#ffffff&quot;&gt;通用特效&lt;/font&gt;" style="rounded=1;whiteSpace=wrap;html=1;fillColor=#97D077;strokeColor=#82B366;" vertex="1" parent="1">
          <mxGeometry x="847" y="1396" width="80" height="40" as="geometry"/>
        </mxCell>
        <mxCell id="bwAEqejOgfns9-r_lzPc-18" value="&lt;font color=&quot;#ffffff&quot;&gt;战斗场景&lt;/font&gt;" style="rounded=1;whiteSpace=wrap;html=1;fillColor=#97D077;strokeColor=#82B366;" vertex="1" parent="1">
          <mxGeometry x="407.5" y="1396" width="80" height="40" as="geometry"/>
        </mxCell>
        <mxCell id="bwAEqejOgfns9-r_lzPc-19" value="&lt;font color=&quot;#ffffff&quot;&gt;技能预制件&lt;/font&gt;" style="rounded=1;whiteSpace=wrap;html=1;fillColor=#97D077;strokeColor=#82B366;" vertex="1" parent="1">
          <mxGeometry x="934" y="1396" width="80" height="40" as="geometry"/>
        </mxCell>
        <mxCell id="bwAEqejOgfns9-r_lzPc-20" value="&lt;font color=&quot;#ffffff&quot;&gt;战斗HUD UI&lt;br&gt;&lt;/font&gt;" style="rounded=1;whiteSpace=wrap;html=1;fillColor=#97D077;strokeColor=#82B366;" vertex="1" parent="1">
          <mxGeometry x="1110" y="1396" width="80" height="40" as="geometry"/>
        </mxCell>
        <mxCell id="bwAEqejOgfns9-r_lzPc-21" value="&lt;font color=&quot;#ffffff&quot;&gt;战斗背景图&lt;/font&gt;" style="rounded=1;whiteSpace=wrap;html=1;fillColor=#97D077;strokeColor=#82B366;" vertex="1" parent="1">
          <mxGeometry x="495" y="1396" width="80" height="40" as="geometry"/>
        </mxCell>
        <mxCell id="bwAEqejOgfns9-r_lzPc-22" value="&lt;font color=&quot;#ffffff&quot;&gt;模型音效&lt;/font&gt;" style="rounded=1;whiteSpace=wrap;html=1;fillColor=#97D077;strokeColor=#82B366;" vertex="1" parent="1">
          <mxGeometry x="759" y="1396" width="80" height="40" as="geometry"/>
        </mxCell>
        <mxCell id="bwAEqejOgfns9-r_lzPc-23" value="&lt;font color=&quot;#ffffff&quot;&gt;通用资源加载器&lt;/font&gt;" style="rounded=1;whiteSpace=wrap;html=1;fillColor=#67AB9F;strokeColor=#4D8077;" vertex="1" parent="1">
          <mxGeometry x="665" y="1507.5" width="120" height="40" as="geometry"/>
        </mxCell>
        <mxCell id="bwAEqejOgfns9-r_lzPc-24" value="&lt;font style=&quot;font-size: 18px&quot;&gt;&lt;b style=&quot;font-size: 14px&quot;&gt;&lt;font color=&quot;#333333&quot; style=&quot;font-size: 14px&quot;&gt;功能管理器&lt;br&gt;&lt;br&gt;&lt;br&gt;&lt;/font&gt;&lt;/b&gt;&lt;br&gt;&lt;/font&gt;" style="rounded=1;whiteSpace=wrap;html=1;strokeColor=#6c8ebf;fillColor=#dae8fc;" vertex="1" parent="1">
          <mxGeometry x="240" y="1260" width="960" height="90" as="geometry"/>
        </mxCell>
        <mxCell id="bwAEqejOgfns9-r_lzPc-25" value="&lt;span style=&quot;color: rgb(255 , 255 , 255)&quot;&gt;录像管理器&lt;/span&gt;" style="rounded=1;whiteSpace=wrap;html=1;fillColor=#66B2FF;strokeColor=#6c8ebf;" vertex="1" parent="1">
          <mxGeometry x="267" y="1295" width="120" height="40" as="geometry"/>
        </mxCell>
        <mxCell id="bwAEqejOgfns9-r_lzPc-26" value="&lt;span style=&quot;color: rgb(255 , 255 , 255)&quot;&gt;新手引导管理器&lt;/span&gt;" style="rounded=1;whiteSpace=wrap;html=1;fillColor=#66B2FF;strokeColor=#6c8ebf;" vertex="1" parent="1">
          <mxGeometry x="463" y="1295" width="120" height="40" as="geometry"/>
        </mxCell>
        <mxCell id="bwAEqejOgfns9-r_lzPc-27" value="&lt;span style=&quot;color: rgb(255 , 255 , 255)&quot;&gt;模拟战斗控制器&lt;/span&gt;" style="rounded=1;whiteSpace=wrap;html=1;fillColor=#66B2FF;strokeColor=#6c8ebf;" vertex="1" parent="1">
          <mxGeometry x="659" y="1295" width="120" height="40" as="geometry"/>
        </mxCell>
        <mxCell id="bwAEqejOgfns9-r_lzPc-28" value="&lt;span style=&quot;color: rgb(255 , 255 , 255)&quot;&gt;观战管理器&lt;/span&gt;" style="rounded=1;whiteSpace=wrap;html=1;fillColor=#66B2FF;strokeColor=#6c8ebf;" vertex="1" parent="1">
          <mxGeometry x="854" y="1295" width="120" height="40" as="geometry"/>
        </mxCell>
        <mxCell id="bwAEqejOgfns9-r_lzPc-29" value="&lt;span style=&quot;color: rgb(255 , 255 , 255)&quot;&gt;镜头控制器&lt;/span&gt;" style="rounded=1;whiteSpace=wrap;html=1;fillColor=#66B2FF;strokeColor=#6c8ebf;" vertex="1" parent="1">
          <mxGeometry x="1050" y="1295" width="120" height="40" as="geometry"/>
        </mxCell>
        <mxCell id="bwAEqejOgfns9-r_lzPc-30" value="&lt;font style=&quot;font-size: 18px&quot;&gt;&lt;b style=&quot;font-size: 14px&quot;&gt;&lt;font color=&quot;#333333&quot; style=&quot;font-size: 14px&quot;&gt;&lt;br&gt;全局数据&lt;br&gt;&lt;br&gt;&lt;br&gt;&lt;/font&gt;&lt;/b&gt;&lt;br&gt;&lt;/font&gt;" style="rounded=1;whiteSpace=wrap;html=1;strokeColor=#666666;fillColor=#f5f5f5;fontColor=#333333;" vertex="1" parent="1">
          <mxGeometry x="240" y="1190" width="960" height="70" as="geometry"/>
        </mxCell>
        <mxCell id="bwAEqejOgfns9-r_lzPc-31" value="&lt;font color=&quot;#ffffff&quot;&gt;战斗入场数据类&lt;/font&gt;" style="rounded=1;whiteSpace=wrap;html=1;fillColor=#B3B3B3;strokeColor=#666666;fontColor=#333333;" vertex="1" parent="1">
          <mxGeometry x="520" y="1209" width="120" height="40" as="geometry"/>
        </mxCell>
        <mxCell id="bwAEqejOgfns9-r_lzPc-32" value="&lt;font color=&quot;#ffffff&quot;&gt;战斗实时数据类&lt;/font&gt;" style="rounded=1;whiteSpace=wrap;html=1;fillColor=#B3B3B3;strokeColor=#666666;fontColor=#333333;" vertex="1" parent="1">
          <mxGeometry x="787" y="1209" width="120" height="40" as="geometry"/>
        </mxCell>
        <mxCell id="bwAEqejOgfns9-r_lzPc-33" value="&lt;font style=&quot;font-size: 14px&quot;&gt;&lt;b style=&quot;color: rgb(51 , 51 , 51)&quot;&gt;战斗流程（20+个PlayMaker Action）&lt;/b&gt;&lt;b style=&quot;font-size: 14px&quot;&gt;&lt;font color=&quot;#333333&quot; style=&quot;font-size: 14px&quot;&gt;&lt;br&gt;&lt;br&gt;&lt;br&gt;&lt;/font&gt;&lt;/b&gt;&lt;br&gt;&lt;/font&gt;" style="rounded=1;whiteSpace=wrap;html=1;fillColor=#e1d5e7;strokeColor=#9673a6;" vertex="1" parent="1">
          <mxGeometry x="240" y="1110" width="960" height="79" as="geometry"/>
        </mxCell>
        <mxCell id="bwAEqejOgfns9-r_lzPc-34" value="&lt;span style=&quot;color: rgb(255 , 255 , 255)&quot;&gt;战斗初始化&lt;/span&gt;" style="rounded=1;whiteSpace=wrap;html=1;fillColor=#330066;strokeColor=#9673A6;" vertex="1" parent="1">
          <mxGeometry x="270" y="1140" width="80" height="40" as="geometry"/>
        </mxCell>
        <mxCell id="bwAEqejOgfns9-r_lzPc-35" value="&lt;span style=&quot;color: rgb(255 , 255 , 255)&quot;&gt;等待表演开始&lt;/span&gt;" style="rounded=1;whiteSpace=wrap;html=1;fillColor=#330066;strokeColor=#9673A6;" vertex="1" parent="1">
          <mxGeometry x="1005" y="1140" width="80" height="40" as="geometry"/>
        </mxCell>
        <mxCell id="bwAEqejOgfns9-r_lzPc-36" value="&lt;span style=&quot;color: rgb(255 , 255 , 255)&quot;&gt;战斗开始&lt;/span&gt;" style="rounded=1;whiteSpace=wrap;html=1;fillColor=#330066;strokeColor=#9673A6;" vertex="1" parent="1">
          <mxGeometry x="362" y="1140" width="80" height="40" as="geometry"/>
        </mxCell>
        <mxCell id="bwAEqejOgfns9-r_lzPc-37" value="&lt;span style=&quot;color: rgb(255 , 255 , 255)&quot;&gt;预加载资源&lt;/span&gt;" style="rounded=1;whiteSpace=wrap;html=1;fillColor=#330066;strokeColor=#9673A6;" vertex="1" parent="1">
          <mxGeometry x="454" y="1140" width="80" height="40" as="geometry"/>
        </mxCell>
        <mxCell id="bwAEqejOgfns9-r_lzPc-38" value="&lt;span style=&quot;color: rgb(255 , 255 , 255)&quot;&gt;回合开始&lt;/span&gt;" style="rounded=1;whiteSpace=wrap;html=1;fillColor=#330066;strokeColor=#9673A6;" vertex="1" parent="1">
          <mxGeometry x="546" y="1140" width="80" height="40" as="geometry"/>
        </mxCell>
        <mxCell id="bwAEqejOgfns9-r_lzPc-39" value="&lt;span style=&quot;color: rgb(255 , 255 , 255)&quot;&gt;新手引导&lt;/span&gt;" style="rounded=1;whiteSpace=wrap;html=1;fillColor=#330066;strokeColor=#9673A6;" vertex="1" parent="1">
          <mxGeometry x="638" y="1140" width="80" height="40" as="geometry"/>
        </mxCell>
        <mxCell id="bwAEqejOgfns9-r_lzPc-40" value="&lt;span style=&quot;color: rgb(255 , 255 , 255)&quot;&gt;指令输入&lt;/span&gt;" style="rounded=1;whiteSpace=wrap;html=1;fillColor=#330066;strokeColor=#9673A6;" vertex="1" parent="1">
          <mxGeometry x="729" y="1140" width="80" height="40" as="geometry"/>
        </mxCell>
        <mxCell id="bwAEqejOgfns9-r_lzPc-41" value="&lt;font color=&quot;#ffffff&quot;&gt;等待表演开始&lt;/font&gt;" style="rounded=1;whiteSpace=wrap;html=1;fillColor=#330066;strokeColor=#9673A6;" vertex="1" parent="1">
          <mxGeometry x="821" y="1140" width="80" height="40" as="geometry"/>
        </mxCell>
        <mxCell id="bwAEqejOgfns9-r_lzPc-42" value="&lt;font color=&quot;#ffffff&quot;&gt;各类回合表演&lt;/font&gt;" style="rounded=1;whiteSpace=wrap;html=1;fillColor=#330066;strokeColor=#9673A6;" vertex="1" parent="1">
          <mxGeometry x="913" y="1140" width="80" height="40" as="geometry"/>
        </mxCell>
        <mxCell id="bwAEqejOgfns9-r_lzPc-43" value="&lt;span style=&quot;color: rgb(255 , 255 , 255)&quot;&gt;退出战斗&lt;/span&gt;" style="rounded=1;whiteSpace=wrap;html=1;fillColor=#330066;strokeColor=#9673A6;" vertex="1" parent="1">
          <mxGeometry x="1097" y="1140" width="80" height="40" as="geometry"/>
        </mxCell>
        <mxCell id="bwAEqejOgfns9-r_lzPc-44" value="&lt;font style=&quot;font-size: 14px&quot;&gt;&lt;b style=&quot;color: rgb(51 , 51 , 51)&quot;&gt;资源编辑器&lt;/b&gt;&lt;b style=&quot;font-size: 14px&quot;&gt;&lt;font color=&quot;#333333&quot; style=&quot;font-size: 14px&quot;&gt;&lt;br&gt;&lt;br&gt;&lt;br&gt;&lt;br&gt;&lt;br&gt;&lt;br&gt;&lt;br&gt;&lt;br&gt;&lt;br&gt;&lt;br&gt;&lt;/font&gt;&lt;/b&gt;&lt;br&gt;&lt;/font&gt;" style="rounded=1;whiteSpace=wrap;html=1;fillColor=#FFF2CC;strokeColor=#d6b656;" vertex="1" parent="1">
          <mxGeometry x="241" y="1350" width="159" height="210" as="geometry"/>
        </mxCell>
        <mxCell id="bwAEqejOgfns9-r_lzPc-45" value="&lt;font color=&quot;#ffffff&quot;&gt;战斗场景&lt;/font&gt;" style="rounded=1;whiteSpace=wrap;html=1;fillColor=#D6B656;strokeColor=#A68C42;" vertex="1" parent="1">
          <mxGeometry x="260.5" y="1396" width="120" height="40" as="geometry"/>
        </mxCell>
        <mxCell id="bwAEqejOgfns9-r_lzPc-46" value="&lt;font color=&quot;#ffffff&quot;&gt;技能编辑器&lt;/font&gt;" style="rounded=1;whiteSpace=wrap;html=1;fillColor=#D6B656;strokeColor=#A68C42;fontColor=#ffffff;" vertex="1" parent="1">
          <mxGeometry x="260.5" y="1450" width="120" height="40" as="geometry"/>
        </mxCell>
        <mxCell id="bwAEqejOgfns9-r_lzPc-47" value="&lt;font color=&quot;#ffffff&quot;&gt;Buff编辑器&lt;/font&gt;" style="rounded=1;whiteSpace=wrap;html=1;fillColor=#D6B656;strokeColor=#A68C42;fontColor=#ffffff;" vertex="1" parent="1">
          <mxGeometry x="260.5" y="1507.5" width="120" height="40" as="geometry"/>
        </mxCell>
        <mxCell id="bwAEqejOgfns9-r_lzPc-48" value="&lt;font style=&quot;font-size: 14px&quot;&gt;&lt;b style=&quot;color: rgb(51 , 51 , 51)&quot;&gt;外围业务功能模块&lt;/b&gt;&lt;b style=&quot;font-size: 14px&quot;&gt;&lt;font color=&quot;#333333&quot; style=&quot;font-size: 14px&quot;&gt;&lt;br&gt;&lt;br&gt;&lt;br&gt;&lt;br&gt;&lt;br&gt;&lt;br&gt;&lt;/font&gt;&lt;/b&gt;&lt;br&gt;&lt;/font&gt;" style="rounded=1;whiteSpace=wrap;html=1;fillColor=#f5f5f5;strokeColor=#666666;fontColor=#333333;" vertex="1" parent="1">
          <mxGeometry x="240" y="980" width="320" height="130" as="geometry"/>
        </mxCell>
        <mxCell id="bwAEqejOgfns9-r_lzPc-49" value="&lt;font color=&quot;#ffffff&quot;&gt;战斗背包模块&lt;/font&gt;" style="rounded=1;whiteSpace=wrap;html=1;fillColor=#B3B3B3;strokeColor=#666666;fontColor=#333333;" vertex="1" parent="1">
          <mxGeometry x="267" y="1013" width="120" height="40" as="geometry"/>
        </mxCell>
        <mxCell id="bwAEqejOgfns9-r_lzPc-50" value="&lt;font color=&quot;#ffffff&quot;&gt;召唤系统模块&lt;/font&gt;" style="rounded=1;whiteSpace=wrap;html=1;fillColor=#B3B3B3;strokeColor=#666666;fontColor=#333333;" vertex="1" parent="1">
          <mxGeometry x="412.5" y="1013" width="120" height="40" as="geometry"/>
        </mxCell>
        <mxCell id="bwAEqejOgfns9-r_lzPc-51" value="&lt;font color=&quot;#ffffff&quot;&gt;法宝系统模块&lt;/font&gt;" style="rounded=1;whiteSpace=wrap;html=1;fillColor=#B3B3B3;strokeColor=#666666;fontColor=#333333;" vertex="1" parent="1">
          <mxGeometry x="267" y="1061" width="120" height="40" as="geometry"/>
        </mxCell>
        <mxCell id="bwAEqejOgfns9-r_lzPc-52" value="&lt;font color=&quot;#ffffff&quot;&gt;指挥系统模块&lt;/font&gt;" style="rounded=1;whiteSpace=wrap;html=1;fillColor=#B3B3B3;strokeColor=#666666;fontColor=#333333;" vertex="1" parent="1">
          <mxGeometry x="411.5" y="1061" width="120" height="40" as="geometry"/>
        </mxCell>
        <mxCell id="bwAEqejOgfns9-r_lzPc-53" value="&lt;font style=&quot;font-size: 14px&quot;&gt;&lt;b style=&quot;color: rgb(51 , 51 , 51)&quot;&gt;战斗UI&lt;/b&gt;&lt;b style=&quot;font-size: 14px&quot;&gt;&lt;font color=&quot;#333333&quot; style=&quot;font-size: 14px&quot;&gt;&lt;br&gt;&lt;br&gt;&lt;br&gt;&lt;br&gt;&lt;br&gt;&lt;br&gt;&lt;/font&gt;&lt;/b&gt;&lt;br&gt;&lt;/font&gt;" style="rounded=1;whiteSpace=wrap;html=1;fillColor=#bac8d3;strokeColor=#23445d;" vertex="1" parent="1">
          <mxGeometry x="560" y="980" width="316" height="130" as="geometry"/>
        </mxCell>
        <mxCell id="bwAEqejOgfns9-r_lzPc-54" value="&lt;font color=&quot;#ffffff&quot;&gt;HUD管理器&lt;/font&gt;" style="rounded=1;whiteSpace=wrap;html=1;fillColor=#23445D;strokeColor=#666666;fontColor=#333333;" vertex="1" parent="1">
          <mxGeometry x="580" y="1013" width="120" height="40" as="geometry"/>
        </mxCell>
        <mxCell id="bwAEqejOgfns9-r_lzPc-55" value="&lt;font color=&quot;#ffffff&quot;&gt;UI特效管理器&lt;/font&gt;" style="rounded=1;whiteSpace=wrap;html=1;fillColor=#23445D;strokeColor=#666666;fontColor=#333333;" vertex="1" parent="1">
          <mxGeometry x="734" y="1013" width="120" height="40" as="geometry"/>
        </mxCell>
        <mxCell id="bwAEqejOgfns9-r_lzPc-56" value="&lt;font color=&quot;#ffffff&quot;&gt;战斗飘字管理器&lt;/font&gt;" style="rounded=1;whiteSpace=wrap;html=1;fillColor=#23445D;strokeColor=#666666;fontColor=#333333;" vertex="1" parent="1">
          <mxGeometry x="580" y="1061" width="120" height="40" as="geometry"/>
        </mxCell>
        <mxCell id="bwAEqejOgfns9-r_lzPc-57" value="&lt;font color=&quot;#ffffff&quot;&gt;指令选择器&lt;/font&gt;" style="rounded=1;whiteSpace=wrap;html=1;fillColor=#23445D;strokeColor=#666666;fontColor=#333333;" vertex="1" parent="1">
          <mxGeometry x="734" y="1061.5" width="120" height="40" as="geometry"/>
        </mxCell>
        <mxCell id="bwAEqejOgfns9-r_lzPc-58" value="&lt;font style=&quot;font-size: 14px&quot;&gt;&lt;b style=&quot;color: rgb(51 , 51 , 51)&quot;&gt;战斗单位&lt;/b&gt;&lt;b style=&quot;font-size: 14px&quot;&gt;&lt;font color=&quot;#333333&quot; style=&quot;font-size: 14px&quot;&gt;&lt;br&gt;&lt;br&gt;&lt;br&gt;&lt;br&gt;&lt;br&gt;&lt;br&gt;&lt;/font&gt;&lt;/b&gt;&lt;br&gt;&lt;/font&gt;" style="rounded=1;whiteSpace=wrap;html=1;fillColor=#bac8d3;strokeColor=#23445d;" vertex="1" parent="1">
          <mxGeometry x="876" y="980" width="324" height="130" as="geometry"/>
        </mxCell>
        <mxCell id="bwAEqejOgfns9-r_lzPc-59" value="&lt;font color=&quot;#ffffff&quot;&gt;Avatar加载管理器&lt;/font&gt;" style="rounded=1;whiteSpace=wrap;html=1;fillColor=#23445D;strokeColor=#666666;" vertex="1" parent="1">
          <mxGeometry x="893" y="1013" width="120" height="40" as="geometry"/>
        </mxCell>
        <mxCell id="bwAEqejOgfns9-r_lzPc-60" value="&lt;font color=&quot;#ffffff&quot;&gt;战斗单位管理器&lt;/font&gt;" style="rounded=1;whiteSpace=wrap;html=1;fillColor=#23445D;strokeColor=#666666;" vertex="1" parent="1">
          <mxGeometry x="1057" y="1013" width="120" height="40" as="geometry"/>
        </mxCell>
        <mxCell id="bwAEqejOgfns9-r_lzPc-61" value="&lt;font color=&quot;#ffffff&quot;&gt;普通单位&lt;/font&gt;" style="rounded=1;whiteSpace=wrap;html=1;fillColor=#23445D;strokeColor=#666666;" vertex="1" parent="1">
          <mxGeometry x="893" y="1060" width="120" height="40" as="geometry"/>
        </mxCell>
        <mxCell id="bwAEqejOgfns9-r_lzPc-62" value="&lt;font color=&quot;#ffffff&quot;&gt;大型BOSS单位&lt;/font&gt;" style="rounded=1;whiteSpace=wrap;html=1;fillColor=#23445D;strokeColor=#666666;" vertex="1" parent="1">
          <mxGeometry x="1057" y="1060" width="120" height="40" as="geometry"/>
        </mxCell>
        <mxCell id="bwAEqejOgfns9-r_lzPc-63" value="&lt;font style=&quot;font-size: 14px&quot;&gt;&lt;b&gt;性能剖析及调试&lt;/b&gt;&lt;b style=&quot;font-size: 14px&quot;&gt;&lt;font color=&quot;#333333&quot; style=&quot;font-size: 14px&quot;&gt;&lt;br&gt;&lt;br&gt;&lt;br&gt;&lt;/font&gt;&lt;/b&gt;&lt;br&gt;&lt;/font&gt;" style="rounded=1;whiteSpace=wrap;html=1;fillColor=#f5f5f5;strokeColor=#666666;fontColor=#333333;" vertex="1" parent="1">
          <mxGeometry x="239" y="770" width="961" height="80" as="geometry"/>
        </mxCell>
        <mxCell id="bwAEqejOgfns9-r_lzPc-64" value="&lt;span style=&quot;color: rgb(255 , 255 , 255)&quot;&gt;&lt;font style=&quot;font-size: 12px&quot;&gt;ResourceTracker&lt;/font&gt;&lt;/span&gt;" style="rounded=1;whiteSpace=wrap;html=1;fillColor=#B3B3B3;strokeColor=#666666;fontColor=#333333;" vertex="1" parent="1">
          <mxGeometry x="246" y="802" width="100" height="40" as="geometry"/>
        </mxCell>
        <mxCell id="bwAEqejOgfns9-r_lzPc-65" value="&lt;span style=&quot;color: rgb(255 , 255 , 255)&quot;&gt;Unity Profiler&lt;/span&gt;" style="rounded=1;whiteSpace=wrap;html=1;fillColor=#B3B3B3;strokeColor=#666666;fontColor=#333333;" vertex="1" parent="1">
          <mxGeometry x="350" y="802" width="100" height="40" as="geometry"/>
        </mxCell>
        <mxCell id="bwAEqejOgfns9-r_lzPc-66" value="&lt;span style=&quot;color: rgb(255 , 255 , 255)&quot;&gt;PrefDog&lt;/span&gt;" style="rounded=1;whiteSpace=wrap;html=1;fillColor=#B3B3B3;strokeColor=#666666;fontColor=#333333;" vertex="1" parent="1">
          <mxGeometry x="455" y="802" width="100" height="40" as="geometry"/>
        </mxCell>
        <mxCell id="bwAEqejOgfns9-r_lzPc-67" value="&lt;span style=&quot;color: rgb(255 , 255 , 255)&quot;&gt;资源加载监控工具&lt;/span&gt;" style="rounded=1;whiteSpace=wrap;html=1;fillColor=#B3B3B3;strokeColor=#666666;fontColor=#333333;" vertex="1" parent="1">
          <mxGeometry x="559" y="802" width="100" height="40" as="geometry"/>
        </mxCell>
        <mxCell id="bwAEqejOgfns9-r_lzPc-68" value="&lt;span style=&quot;color: rgb(255 , 255 , 255)&quot;&gt;性能监控中心&lt;/span&gt;" style="rounded=1;whiteSpace=wrap;html=1;fillColor=#B3B3B3;strokeColor=#666666;fontColor=#333333;" vertex="1" parent="1">
          <mxGeometry x="663" y="802" width="100" height="40" as="geometry"/>
        </mxCell>
        <mxCell id="bwAEqejOgfns9-r_lzPc-69" value="&lt;span style=&quot;color: rgb(255 , 255 , 255)&quot;&gt;性能监控中心&lt;/span&gt;" style="rounded=1;whiteSpace=wrap;html=1;fillColor=#B3B3B3;strokeColor=#666666;fontColor=#333333;" vertex="1" parent="1">
          <mxGeometry x="767" y="802" width="100" height="40" as="geometry"/>
        </mxCell>
        <mxCell id="bwAEqejOgfns9-r_lzPc-70" value="&lt;span style=&quot;color: rgb(255 , 255 , 255)&quot;&gt;录像调试播放器&lt;/span&gt;" style="rounded=1;whiteSpace=wrap;html=1;fillColor=#B3B3B3;strokeColor=#666666;fontColor=#333333;" vertex="1" parent="1">
          <mxGeometry x="872" y="802" width="100" height="40" as="geometry"/>
        </mxCell>
        <mxCell id="bwAEqejOgfns9-r_lzPc-71" value="&lt;span style=&quot;color: rgb(255 , 255 , 255)&quot;&gt;弱网调试工具&lt;/span&gt;" style="rounded=1;whiteSpace=wrap;html=1;fillColor=#B3B3B3;strokeColor=#666666;fontColor=#333333;" vertex="1" parent="1">
          <mxGeometry x="976" y="802" width="100" height="40" as="geometry"/>
        </mxCell>
        <mxCell id="bwAEqejOgfns9-r_lzPc-72" value="&lt;span style=&quot;color: rgb(255 , 255 , 255)&quot;&gt;资源/配表检查工具&lt;/span&gt;" style="rounded=1;whiteSpace=wrap;html=1;fillColor=#B3B3B3;strokeColor=#666666;fontColor=#333333;" vertex="1" parent="1">
          <mxGeometry x="1080" y="802" width="100" height="40" as="geometry"/>
        </mxCell>
        <mxCell id="bwAEqejOgfns9-r_lzPc-73" value="&lt;font style=&quot;font-size: 14px&quot;&gt;&lt;b&gt;&lt;font color=&quot;#333333&quot; style=&quot;font-size: 14px&quot;&gt;技能表演脚本（&lt;/font&gt;&lt;/b&gt;&lt;b&gt;&lt;font color=&quot;#333333&quot; style=&quot;font-size: 14px&quot;&gt;60+个&lt;/font&gt;&lt;/b&gt;&lt;b&gt;&lt;font color=&quot;#333333&quot; style=&quot;font-size: 14px&quot;&gt;）&lt;/font&gt;&lt;/b&gt;&lt;b style=&quot;font-size: 14px&quot;&gt;&lt;font color=&quot;#333333&quot; style=&quot;font-size: 14px&quot;&gt;&lt;br&gt;&lt;br&gt;&lt;br&gt;&lt;br&gt;&lt;/font&gt;&lt;/b&gt;&lt;br&gt;&lt;br&gt;&lt;br&gt;&lt;/font&gt;" style="rounded=1;whiteSpace=wrap;html=1;fillColor=#bac8d3;strokeColor=#23445d;" vertex="1" parent="1">
          <mxGeometry x="239" y="850" width="551" height="130" as="geometry"/>
        </mxCell>
        <mxCell id="bwAEqejOgfns9-r_lzPc-74" value="&lt;font color=&quot;#ffffff&quot;&gt;喊话&lt;/font&gt;" style="rounded=1;whiteSpace=wrap;html=1;fillColor=#23445D;strokeColor=#666666;" vertex="1" parent="1">
          <mxGeometry x="260.5" y="882" width="80" height="40" as="geometry"/>
        </mxCell>
        <mxCell id="bwAEqejOgfns9-r_lzPc-75" value="&lt;font color=&quot;#ffffff&quot;&gt;移动&lt;/font&gt;" style="rounded=1;whiteSpace=wrap;html=1;fillColor=#23445D;strokeColor=#666666;" vertex="1" parent="1">
          <mxGeometry x="367" y="882" width="80" height="40" as="geometry"/>
        </mxCell>
        <mxCell id="bwAEqejOgfns9-r_lzPc-76" value="&lt;font color=&quot;#ffffff&quot;&gt;飞行物&lt;/font&gt;" style="rounded=1;whiteSpace=wrap;html=1;fillColor=#23445D;strokeColor=#666666;" vertex="1" parent="1">
          <mxGeometry x="474" y="882" width="80" height="40" as="geometry"/>
        </mxCell>
        <mxCell id="bwAEqejOgfns9-r_lzPc-77" value="&lt;font color=&quot;#ffffff&quot;&gt;材质控制&lt;/font&gt;" style="rounded=1;whiteSpace=wrap;html=1;fillColor=#23445D;strokeColor=#666666;" vertex="1" parent="1">
          <mxGeometry x="580" y="882" width="80" height="40" as="geometry"/>
        </mxCell>
        <mxCell id="bwAEqejOgfns9-r_lzPc-78" value="&lt;font color=&quot;#ffffff&quot;&gt;节奏控制&lt;/font&gt;" style="rounded=1;whiteSpace=wrap;html=1;fillColor=#23445D;strokeColor=#666666;" vertex="1" parent="1">
          <mxGeometry x="687" y="882" width="80" height="40" as="geometry"/>
        </mxCell>
        <mxCell id="bwAEqejOgfns9-r_lzPc-79" value="&lt;font color=&quot;#ffffff&quot;&gt;动作播放&lt;/font&gt;" style="rounded=1;whiteSpace=wrap;html=1;fillColor=#23445D;strokeColor=#666666;" vertex="1" parent="1">
          <mxGeometry x="260.5" y="932" width="80" height="40" as="geometry"/>
        </mxCell>
        <mxCell id="bwAEqejOgfns9-r_lzPc-80" value="&lt;font color=&quot;#ffffff&quot;&gt;特效播放&lt;/font&gt;" style="rounded=1;whiteSpace=wrap;html=1;fillColor=#23445D;strokeColor=#666666;" vertex="1" parent="1">
          <mxGeometry x="367" y="932" width="80" height="40" as="geometry"/>
        </mxCell>
        <mxCell id="bwAEqejOgfns9-r_lzPc-81" value="&lt;font color=&quot;#ffffff&quot;&gt;音频播放&lt;/font&gt;" style="rounded=1;whiteSpace=wrap;html=1;fillColor=#23445D;strokeColor=#666666;" vertex="1" parent="1">
          <mxGeometry x="474" y="932" width="80" height="40" as="geometry"/>
        </mxCell>
        <mxCell id="bwAEqejOgfns9-r_lzPc-82" value="&lt;span style=&quot;color: rgb(255 , 255 , 255)&quot;&gt;镜头控制&lt;/span&gt;" style="rounded=1;whiteSpace=wrap;html=1;fillColor=#23445D;strokeColor=#666666;" vertex="1" parent="1">
          <mxGeometry x="580" y="932" width="80" height="40" as="geometry"/>
        </mxCell>
        <mxCell id="bwAEqejOgfns9-r_lzPc-83" value="&lt;span style=&quot;color: rgb(255 , 255 , 255)&quot;&gt;模型控制&lt;/span&gt;" style="rounded=1;whiteSpace=wrap;html=1;fillColor=#23445D;strokeColor=#666666;" vertex="1" parent="1">
          <mxGeometry x="687" y="932" width="80" height="40" as="geometry"/>
        </mxCell>
        <mxCell id="bwAEqejOgfns9-r_lzPc-84" value="&lt;font style=&quot;font-size: 14px&quot;&gt;&lt;b style=&quot;font-size: 14px&quot;&gt;&lt;font color=&quot;#333333&quot; style=&quot;font-size: 14px&quot;&gt;摄像机后处理&lt;br&gt;&lt;br&gt;&lt;br&gt;&lt;br&gt;&lt;/font&gt;&lt;/b&gt;&lt;br&gt;&lt;br&gt;&lt;br&gt;&lt;/font&gt;" style="rounded=1;whiteSpace=wrap;html=1;fillColor=#bac8d3;strokeColor=#23445d;" vertex="1" parent="1">
          <mxGeometry x="790" y="850" width="410" height="130" as="geometry"/>
        </mxCell>
        <mxCell id="bwAEqejOgfns9-r_lzPc-85" value="&lt;span style=&quot;color: rgb(255 , 255 , 255)&quot;&gt;镜头抖动&lt;/span&gt;" style="rounded=1;whiteSpace=wrap;html=1;fillColor=#23445D;strokeColor=#666666;" vertex="1" parent="1">
          <mxGeometry x="827" y="882" width="80" height="40" as="geometry"/>
        </mxCell>
        <mxCell id="bwAEqejOgfns9-r_lzPc-86" value="&lt;span style=&quot;color: rgb(255 , 255 , 255)&quot;&gt;全屏反相&lt;/span&gt;" style="rounded=1;whiteSpace=wrap;html=1;fillColor=#23445D;strokeColor=#666666;" vertex="1" parent="1">
          <mxGeometry x="949" y="882" width="80" height="40" as="geometry"/>
        </mxCell>
        <mxCell id="bwAEqejOgfns9-r_lzPc-87" value="&lt;span style=&quot;color: rgb(255 , 255 , 255)&quot;&gt;径向模糊&lt;/span&gt;" style="rounded=1;whiteSpace=wrap;html=1;fillColor=#23445D;strokeColor=#666666;" vertex="1" parent="1">
          <mxGeometry x="1070" y="880" width="80" height="40" as="geometry"/>
        </mxCell>
        <mxCell id="bwAEqejOgfns9-r_lzPc-88" value="&lt;span style=&quot;color: rgb(255 , 255 , 255)&quot;&gt;全屏灰化&lt;/span&gt;" style="rounded=1;whiteSpace=wrap;html=1;fillColor=#23445D;strokeColor=#666666;" vertex="1" parent="1">
          <mxGeometry x="888" y="931" width="80" height="40" as="geometry"/>
        </mxCell>
        <mxCell id="bwAEqejOgfns9-r_lzPc-89" value="&lt;span style=&quot;color: rgb(255 , 255 , 255)&quot;&gt;动态模糊&lt;/span&gt;" style="rounded=1;whiteSpace=wrap;html=1;fillColor=#23445D;strokeColor=#666666;" vertex="1" parent="1">
          <mxGeometry x="1009" y="931" width="80" height="40" as="geometry"/>
        </mxCell>
        <mxCell id="bwAEqejOgfns9-r_lzPc-90" value="&lt;font color=&quot;#ffffff&quot;&gt;Buff管理器&lt;/font&gt;" style="rounded=1;whiteSpace=wrap;html=1;fillColor=#67AB9F;strokeColor=#4D8077;" vertex="1" parent="1">
          <mxGeometry x="596" y="1452" width="120" height="40" as="geometry"/>
        </mxCell>
        <mxCell id="bwAEqejOgfns9-r_lzPc-91" value="&lt;font color=&quot;#ffffff&quot;&gt;技能管理器&lt;/font&gt;" style="rounded=1;whiteSpace=wrap;html=1;fillColor=#67AB9F;strokeColor=#4D8077;" vertex="1" parent="1">
          <mxGeometry x="447.5" y="1452" width="120" height="40" as="geometry"/>
        </mxCell>
        <mxCell id="bwAEqejOgfns9-r_lzPc-92" value="" style="rounded=1;whiteSpace=wrap;html=1;fillColor=#dae8fc;strokeColor=#6c8ebf;" vertex="1" parent="1">
          <mxGeometry x="-80" y="190" width="630" height="240" as="geometry"/>
        </mxCell>
        <mxCell id="bwAEqejOgfns9-r_lzPc-93" style="edgeStyle=orthogonalEdgeStyle;rounded=0;orthogonalLoop=1;jettySize=auto;html=1;exitX=0.5;exitY=1;exitDx=0;exitDy=0;entryX=0.5;entryY=0;entryDx=0;entryDy=0;startArrow=classic;startFill=1;curved=1;" edge="1" parent="1" source="bwAEqejOgfns9-r_lzPc-94" target="bwAEqejOgfns9-r_lzPc-102">
          <mxGeometry relative="1" as="geometry"/>
        </mxCell>
        <mxCell id="bwAEqejOgfns9-r_lzPc-94" value="" style="rounded=1;whiteSpace=wrap;html=1;fillColor=none;" vertex="1" parent="1">
          <mxGeometry x="-60" y="80" width="270" height="90" as="geometry"/>
        </mxCell>
        <mxCell id="bwAEqejOgfns9-r_lzPc-95" style="edgeStyle=orthogonalEdgeStyle;curved=1;rounded=0;orthogonalLoop=1;jettySize=auto;html=1;exitX=0.5;exitY=1;exitDx=0;exitDy=0;entryX=1;entryY=0;entryDx=0;entryDy=0;startArrow=none;startFill=0;" edge="1" parent="1" source="bwAEqejOgfns9-r_lzPc-96" target="bwAEqejOgfns9-r_lzPc-99">
          <mxGeometry relative="1" as="geometry"/>
        </mxCell>
        <mxCell id="bwAEqejOgfns9-r_lzPc-96" value="" style="rounded=1;whiteSpace=wrap;html=1;fillColor=none;" vertex="1" parent="1">
          <mxGeometry x="257" y="80" width="270" height="90" as="geometry"/>
        </mxCell>
        <mxCell id="bwAEqejOgfns9-r_lzPc-97" style="edgeStyle=orthogonalEdgeStyle;rounded=0;orthogonalLoop=1;jettySize=auto;html=1;startArrow=classic;startFill=1;" edge="1" parent="1" source="bwAEqejOgfns9-r_lzPc-99" target="bwAEqejOgfns9-r_lzPc-111">
          <mxGeometry relative="1" as="geometry"/>
        </mxCell>
        <mxCell id="bwAEqejOgfns9-r_lzPc-98" style="edgeStyle=orthogonalEdgeStyle;rounded=0;orthogonalLoop=1;jettySize=auto;html=1;exitX=0.5;exitY=0;exitDx=0;exitDy=0;entryX=0.5;entryY=1;entryDx=0;entryDy=0;startArrow=classic;startFill=1;" edge="1" parent="1" source="bwAEqejOgfns9-r_lzPc-99" target="bwAEqejOgfns9-r_lzPc-102">
          <mxGeometry relative="1" as="geometry"/>
        </mxCell>
        <mxCell id="bwAEqejOgfns9-r_lzPc-99" value="&lt;font color=&quot;#ffffff&quot;&gt;&lt;span style=&quot;font-size: 16px&quot;&gt;录像管理器&lt;/span&gt;&lt;/font&gt;" style="rounded=1;whiteSpace=wrap;html=1;fillColor=#6C8EBF;strokeColor=none;" vertex="1" parent="1">
          <mxGeometry x="170" y="350" width="120" height="60" as="geometry"/>
        </mxCell>
        <mxCell id="bwAEqejOgfns9-r_lzPc-100" style="rounded=0;orthogonalLoop=1;jettySize=auto;html=1;exitX=0;exitY=1;exitDx=0;exitDy=0;entryX=0.988;entryY=0.076;entryDx=0;entryDy=0;entryPerimeter=0;" edge="1" parent="1" source="bwAEqejOgfns9-r_lzPc-102" target="bwAEqejOgfns9-r_lzPc-104">
          <mxGeometry relative="1" as="geometry"/>
        </mxCell>
        <mxCell id="bwAEqejOgfns9-r_lzPc-101" style="edgeStyle=none;rounded=0;orthogonalLoop=1;jettySize=auto;html=1;exitX=0;exitY=0.5;exitDx=0;exitDy=0;entryX=1;entryY=0.5;entryDx=0;entryDy=0;startArrow=classic;startFill=1;" edge="1" parent="1" source="bwAEqejOgfns9-r_lzPc-102" target="bwAEqejOgfns9-r_lzPc-114">
          <mxGeometry relative="1" as="geometry"/>
        </mxCell>
        <mxCell id="bwAEqejOgfns9-r_lzPc-102" value="&lt;font style=&quot;font-size: 16px&quot; color=&quot;#ffffff&quot;&gt;录像文件管理器&lt;/font&gt;" style="rounded=1;whiteSpace=wrap;html=1;fillColor=#6C8EBF;strokeColor=#6c8ebf;" vertex="1" parent="1">
          <mxGeometry x="170" y="230" width="120" height="60" as="geometry"/>
        </mxCell>
        <mxCell id="bwAEqejOgfns9-r_lzPc-103" style="edgeStyle=orthogonalEdgeStyle;rounded=0;orthogonalLoop=1;jettySize=auto;html=1;exitX=1;exitY=0.5;exitDx=0;exitDy=0;" edge="1" parent="1" source="bwAEqejOgfns9-r_lzPc-104" target="bwAEqejOgfns9-r_lzPc-99">
          <mxGeometry relative="1" as="geometry"/>
        </mxCell>
        <mxCell id="bwAEqejOgfns9-r_lzPc-104" value="&lt;span style=&quot;font-size: 16px&quot;&gt;&lt;font color=&quot;#ffffff&quot;&gt;录像播放器&lt;/font&gt;&lt;/span&gt;" style="rounded=1;whiteSpace=wrap;html=1;fillColor=#6C8EBF;strokeColor=none;" vertex="1" parent="1">
          <mxGeometry x="-60" y="350" width="120" height="60" as="geometry"/>
        </mxCell>
        <mxCell id="bwAEqejOgfns9-r_lzPc-105" style="edgeStyle=orthogonalEdgeStyle;rounded=0;orthogonalLoop=1;jettySize=auto;html=1;exitX=0;exitY=0.5;exitDx=0;exitDy=0;entryX=1;entryY=0.5;entryDx=0;entryDy=0;" edge="1" parent="1" source="bwAEqejOgfns9-r_lzPc-106" target="bwAEqejOgfns9-r_lzPc-99">
          <mxGeometry relative="1" as="geometry">
            <Array as="points">
              <mxPoint x="370" y="260"/>
              <mxPoint x="370" y="380"/>
            </Array>
          </mxGeometry>
        </mxCell>
        <mxCell id="bwAEqejOgfns9-r_lzPc-106" value="&lt;font color=&quot;#ffffff&quot;&gt;&lt;span style=&quot;font-size: 16px&quot;&gt;战场包构建器&lt;/span&gt;&lt;/font&gt;" style="rounded=1;whiteSpace=wrap;html=1;fillColor=#6C8EBF;strokeColor=none;" vertex="1" parent="1">
          <mxGeometry x="407" y="230" width="120" height="60" as="geometry"/>
        </mxCell>
        <mxCell id="bwAEqejOgfns9-r_lzPc-107" value="&lt;font color=&quot;#666666&quot;&gt;&lt;span style=&quot;font-size: 11px&quot;&gt;ProboBuf/BASE64格式&lt;br&gt;&lt;/span&gt;&lt;font style=&quot;font-size: 16px&quot;&gt;本地&lt;/font&gt;&lt;span style=&quot;font-size: 16px&quot;&gt;录像文件&lt;/span&gt;&lt;/font&gt;" style="rounded=1;whiteSpace=wrap;html=1;fillColor=#f5f5f5;strokeColor=#666666;fontColor=#333333;" vertex="1" parent="1">
          <mxGeometry x="-10" y="120" width="170" height="40" as="geometry"/>
        </mxCell>
        <mxCell id="bwAEqejOgfns9-r_lzPc-108" value="&lt;font color=&quot;#ffffff&quot;&gt;&lt;span style=&quot;font-size: 16px&quot;&gt;战斗文字播报器&lt;/span&gt;&lt;/font&gt;" style="rounded=1;whiteSpace=wrap;html=1;fillColor=#6C8EBF;strokeColor=none;" vertex="1" parent="1">
          <mxGeometry x="407" y="350" width="120" height="60" as="geometry"/>
        </mxCell>
        <mxCell id="bwAEqejOgfns9-r_lzPc-109" value="&lt;font color=&quot;#666666&quot;&gt;&lt;font style=&quot;font-size: 12px&quot;&gt;ProtoBuf格式&lt;/font&gt;&lt;br&gt;&lt;span style=&quot;font-size: 16px&quot;&gt;服务器&lt;/span&gt;&lt;font style=&quot;font-size: 16px&quot;&gt;录像数据&lt;/font&gt;&lt;/font&gt;" style="rounded=1;whiteSpace=wrap;html=1;fillColor=#f5f5f5;strokeColor=#666666;fontColor=#333333;" vertex="1" parent="1">
          <mxGeometry x="310" y="120" width="170" height="40" as="geometry"/>
        </mxCell>
        <mxCell id="bwAEqejOgfns9-r_lzPc-110" style="edgeStyle=orthogonalEdgeStyle;rounded=0;orthogonalLoop=1;jettySize=auto;html=1;exitX=0.5;exitY=1;exitDx=0;exitDy=0;entryX=0.5;entryY=0;entryDx=0;entryDy=0;" edge="1" parent="1" source="bwAEqejOgfns9-r_lzPc-111" target="bwAEqejOgfns9-r_lzPc-113">
          <mxGeometry relative="1" as="geometry"/>
        </mxCell>
        <mxCell id="bwAEqejOgfns9-r_lzPc-111" value="&lt;font color=&quot;#666666&quot;&gt;&lt;span style=&quot;font-size: 16px&quot;&gt;网络模块&lt;/span&gt;&lt;/font&gt;" style="rounded=1;whiteSpace=wrap;html=1;fillColor=#f5f5f5;strokeColor=#666666;fontColor=#333333;" vertex="1" parent="1">
          <mxGeometry x="170" y="460" width="120" height="40" as="geometry"/>
        </mxCell>
        <mxCell id="bwAEqejOgfns9-r_lzPc-112" style="rounded=0;orthogonalLoop=1;jettySize=auto;html=1;exitX=1;exitY=0.5;exitDx=0;exitDy=0;entryX=0.5;entryY=1;entryDx=0;entryDy=0;edgeStyle=orthogonalEdgeStyle;curved=1;" edge="1" parent="1" source="bwAEqejOgfns9-r_lzPc-113" target="bwAEqejOgfns9-r_lzPc-108">
          <mxGeometry relative="1" as="geometry"/>
        </mxCell>
        <mxCell id="bwAEqejOgfns9-r_lzPc-113" value="&lt;font color=&quot;#666666&quot;&gt;&lt;span style=&quot;font-size: 16px&quot;&gt;战斗模块&lt;/span&gt;&lt;/font&gt;" style="rounded=1;whiteSpace=wrap;html=1;fillColor=#f5f5f5;strokeColor=#666666;fontColor=#333333;" vertex="1" parent="1">
          <mxGeometry x="170" y="520" width="120" height="40" as="geometry"/>
        </mxCell>
        <mxCell id="bwAEqejOgfns9-r_lzPc-114" value="&lt;font color=&quot;#ffffff&quot;&gt;&lt;span style=&quot;font-size: 16px&quot;&gt;录像上传下载器&lt;/span&gt;&lt;/font&gt;" style="rounded=1;whiteSpace=wrap;html=1;fillColor=#6C8EBF;strokeColor=none;" vertex="1" parent="1">
          <mxGeometry x="-60" y="230" width="120" height="60" as="geometry"/>
        </mxCell>
        <mxCell id="bwAEqejOgfns9-r_lzPc-115" value="&lt;font style=&quot;font-size: 16px&quot; color=&quot;#666666&quot;&gt;开发调试录像/战斗录像大厅&lt;/font&gt;" style="text;html=1;strokeColor=none;fillColor=none;align=center;verticalAlign=middle;whiteSpace=wrap;rounded=0;" vertex="1" parent="1">
          <mxGeometry x="-35" y="80" width="220" height="40" as="geometry"/>
        </mxCell>
        <mxCell id="bwAEqejOgfns9-r_lzPc-116" value="&lt;span style=&quot;font-size: 16px&quot;&gt;&lt;font color=&quot;#666666&quot;&gt;服务器排行榜录像&lt;/font&gt;&lt;/span&gt;" style="text;html=1;strokeColor=none;fillColor=none;align=center;verticalAlign=middle;whiteSpace=wrap;rounded=0;" vertex="1" parent="1">
          <mxGeometry x="327" y="75" width="130" height="50" as="geometry"/>
        </mxCell>
        <mxCell id="bwAEqejOgfns9-r_lzPc-117" value="&lt;font color=&quot;#666666&quot;&gt;根据表演事件产生&lt;br&gt;战斗文字播报&lt;/font&gt;" style="text;html=1;align=center;verticalAlign=middle;whiteSpace=wrap;rounded=1;shadow=1;comic=0;glass=0;fillColor=#bac8d3;strokeColor=#23445d;" vertex="1" parent="1">
          <mxGeometry x="373.93" y="480" width="120" height="30" as="geometry"/>
        </mxCell>
        <mxCell id="bwAEqejOgfns9-r_lzPc-118" value="&lt;font color=&quot;#666666&quot;&gt;跳转回合时，生成该回合战场包&lt;/font&gt;" style="text;html=1;align=center;verticalAlign=middle;whiteSpace=wrap;rounded=1;shadow=1;comic=0;glass=0;fillColor=#bac8d3;strokeColor=#23445d;" vertex="1" parent="1">
          <mxGeometry x="327" y="310" width="172.14" height="20" as="geometry"/>
        </mxCell>
        <mxCell id="bwAEqejOgfns9-r_lzPc-119" value="&lt;font color=&quot;#6c8ebf&quot; style=&quot;font-size: 16px&quot;&gt;战斗录像核心模块&lt;/font&gt;" style="text;html=1;strokeColor=none;fillColor=none;align=center;verticalAlign=middle;whiteSpace=wrap;rounded=0;shadow=1;glass=0;comic=0;" vertex="1" parent="1">
          <mxGeometry x="402" y="200" width="130" height="20" as="geometry"/>
        </mxCell>
        <mxCell id="bwAEqejOgfns9-r_lzPc-120" value="&lt;font color=&quot;#666666&quot;&gt;录制/模拟数据包&lt;/font&gt;" style="text;html=1;align=center;verticalAlign=middle;whiteSpace=wrap;rounded=1;shadow=1;comic=0;glass=0;fillColor=#bac8d3;strokeColor=#23445d;" vertex="1" parent="1">
          <mxGeometry x="177.5" y="423" width="105" height="20" as="geometry"/>
        </mxCell>
        <mxCell id="bwAEqejOgfns9-r_lzPc-121" value="&lt;font color=&quot;#666666&quot;&gt;播放录像&lt;/font&gt;" style="text;html=1;align=center;verticalAlign=middle;whiteSpace=wrap;rounded=1;shadow=1;comic=0;glass=0;fillColor=#bac8d3;strokeColor=#23445d;" vertex="1" parent="1">
          <mxGeometry x="80" y="370" width="60" height="20" as="geometry"/>
        </mxCell>
        <mxCell id="bwAEqejOgfns9-r_lzPc-122" value="&lt;font color=&quot;#666666&quot;&gt;获取列表&lt;/font&gt;" style="text;html=1;align=center;verticalAlign=middle;whiteSpace=wrap;rounded=1;shadow=1;comic=0;glass=0;fillColor=#bac8d3;strokeColor=#23445d;" vertex="1" parent="1">
          <mxGeometry x="80" y="310" width="60" height="20" as="geometry"/>
        </mxCell>
        <mxCell id="bwAEqejOgfns9-r_lzPc-123" value="&lt;font color=&quot;#666666&quot;&gt;播放/保存录像&lt;/font&gt;" style="text;html=1;align=center;verticalAlign=middle;whiteSpace=wrap;rounded=1;shadow=1;comic=0;glass=0;fillColor=#bac8d3;strokeColor=#23445d;" vertex="1" parent="1">
          <mxGeometry x="177.5" y="310" width="105" height="20" as="geometry"/>
        </mxCell>
        <mxCell id="bwAEqejOgfns9-r_lzPc-124" value="&lt;font color=&quot;#666666&quot;&gt;遍历本地录像文件&lt;/font&gt;" style="text;html=1;align=center;verticalAlign=middle;whiteSpace=wrap;rounded=1;shadow=1;comic=0;glass=0;fillColor=#bac8d3;strokeColor=#23445d;" vertex="1" parent="1">
          <mxGeometry x="100" y="186" width="110" height="20" as="geometry"/>
        </mxCell>
        <mxCell id="bwAEqejOgfns9-r_lzPc-125" value="&lt;font color=&quot;#666666&quot;&gt;上传/下载录像&lt;/font&gt;" style="text;html=1;align=center;verticalAlign=middle;whiteSpace=wrap;rounded=1;shadow=1;comic=0;glass=0;fillColor=#bac8d3;strokeColor=#23445d;" vertex="1" parent="1">
          <mxGeometry x="76" y="250" width="80" height="20" as="geometry"/>
        </mxCell>
        <mxCell id="bwAEqejOgfns9-r_lzPc-126" value="&lt;font color=&quot;#666666&quot;&gt;逐回合请求&lt;br&gt;录像数据&lt;/font&gt;" style="text;html=1;align=center;verticalAlign=middle;whiteSpace=wrap;rounded=1;shadow=1;comic=0;glass=0;fillColor=#bac8d3;strokeColor=#23445d;" vertex="1" parent="1">
          <mxGeometry x="310" y="220" width="83" height="30" as="geometry"/>
        </mxCell>
        <mxCell id="bwAEqejOgfns9-r_lzPc-128" value="&lt;font color=&quot;#ffffff&quot;&gt;&lt;span style=&quot;font-size: 16px&quot;&gt;DoTween&lt;br&gt;&lt;/span&gt;&lt;/font&gt;" style="rounded=1;whiteSpace=wrap;html=1;fillColor=#666666;strokeColor=none;" vertex="1" parent="1">
          <mxGeometry x="840" y="550" width="100" height="50" as="geometry"/>
        </mxCell>
        <mxCell id="bwAEqejOgfns9-r_lzPc-130" value="&lt;font color=&quot;#ffffff&quot;&gt;&lt;span style=&quot;font-size: 16px&quot;&gt;PlayMaker&lt;br&gt;&lt;/span&gt;&lt;/font&gt;" style="rounded=1;whiteSpace=wrap;html=1;fillColor=#666666;strokeColor=none;" vertex="1" parent="1">
          <mxGeometry x="949" y="550" width="100" height="50" as="geometry"/>
        </mxCell>
        <mxCell id="bwAEqejOgfns9-r_lzPc-131" value="&lt;font color=&quot;#ffffff&quot;&gt;&lt;span style=&quot;font-size: 16px&quot;&gt;Flux&lt;br&gt;&lt;/span&gt;&lt;/font&gt;" style="rounded=1;whiteSpace=wrap;html=1;fillColor=#666666;strokeColor=none;" vertex="1" parent="1">
          <mxGeometry x="1057" y="550" width="100" height="50" as="geometry"/>
        </mxCell>
        <mxCell id="bwAEqejOgfns9-r_lzPc-132" value="&lt;font color=&quot;#ffffff&quot;&gt;&lt;span style=&quot;font-size: 16px&quot;&gt;ToLua&lt;br&gt;&lt;/span&gt;&lt;/font&gt;" style="rounded=1;whiteSpace=wrap;html=1;fillColor=#666666;strokeColor=none;" vertex="1" parent="1">
          <mxGeometry x="1170" y="550" width="100" height="50" as="geometry"/>
        </mxCell>
        <mxCell id="bwAEqejOgfns9-r_lzPc-133" value="&lt;font color=&quot;#666666&quot; size=&quot;1&quot;&gt;&lt;b style=&quot;font-size: 26px&quot;&gt;第三方类库&lt;/b&gt;&lt;/font&gt;" style="text;html=1;strokeColor=none;fillColor=none;align=center;verticalAlign=middle;whiteSpace=wrap;rounded=0;shadow=1;glass=0;comic=0;" vertex="1" parent="1">
          <mxGeometry x="967.5" y="518" width="174" height="20" as="geometry"/>
        </mxCell>
        <mxCell id="bwAEqejOgfns9-r_lzPc-134" value="" style="rounded=1;whiteSpace=wrap;html=1;fillColor=#dae8fc;strokeColor=#6c8ebf;" vertex="1" parent="1">
          <mxGeometry x="827" y="350" width="453" height="160" as="geometry"/>
        </mxCell>
        <mxCell id="bwAEqejOgfns9-r_lzPc-140" value="&lt;font color=&quot;#666666&quot; size=&quot;1&quot;&gt;&lt;b style=&quot;font-size: 26px&quot;&gt;资源管理器&lt;/b&gt;&lt;b style=&quot;font-size: 20px&quot;&gt;（10+个相关管理器）&lt;/b&gt;&lt;/font&gt;" style="text;html=1;strokeColor=none;fillColor=none;align=center;verticalAlign=middle;whiteSpace=wrap;rounded=0;shadow=1;glass=0;comic=0;" vertex="1" parent="1">
          <mxGeometry x="838" y="360" width="422" height="20" as="geometry"/>
        </mxCell>
        <mxCell id="bwAEqejOgfns9-r_lzPc-141" value="&lt;font color=&quot;#ffffff&quot;&gt;&lt;span style=&quot;font-size: 16px&quot;&gt;战斗控制器&lt;br&gt;&lt;/span&gt;&lt;/font&gt;" style="rounded=1;whiteSpace=wrap;html=1;fillColor=#6C8EBF;strokeColor=none;" vertex="1" parent="1">
          <mxGeometry x="837" y="393" width="100" height="50" as="geometry"/>
        </mxCell>
        <mxCell id="bwAEqejOgfns9-r_lzPc-142" value="" style="rounded=1;whiteSpace=wrap;html=1;fillColor=#dae8fc;strokeColor=#6c8ebf;" vertex="1" parent="1">
          <mxGeometry x="827" y="240" width="453" height="110" as="geometry"/>
        </mxCell>
        <mxCell id="bwAEqejOgfns9-r_lzPc-143" value="&lt;font color=&quot;#666666&quot;&gt;&lt;b&gt;&lt;span style=&quot;font-size: 26px&quot;&gt;战斗流程蓝图&lt;/span&gt;&lt;font style=&quot;font-size: 20px&quot;&gt;（20+个PlayMaker Action）&lt;/font&gt;&lt;/b&gt;&lt;/font&gt;" style="text;html=1;strokeColor=none;fillColor=none;align=center;verticalAlign=middle;whiteSpace=wrap;rounded=0;shadow=1;glass=0;comic=0;" vertex="1" parent="1">
          <mxGeometry x="839" y="250" width="446" height="20" as="geometry"/>
        </mxCell>
        <mxCell id="bwAEqejOgfns9-r_lzPc-144" value="&lt;font color=&quot;#ffffff&quot;&gt;&lt;span style=&quot;font-size: 16px&quot;&gt;资源加载器&lt;br&gt;&lt;/span&gt;&lt;/font&gt;" style="rounded=1;whiteSpace=wrap;html=1;fillColor=#666666;strokeColor=none;" vertex="1" parent="1">
          <mxGeometry x="1062" y="450" width="100" height="50" as="geometry"/>
        </mxCell>
        <mxCell id="bwAEqejOgfns9-r_lzPc-145" value="&lt;font color=&quot;#ffffff&quot;&gt;&lt;span style=&quot;font-size: 16px&quot;&gt;资源缓存池&lt;br&gt;&lt;/span&gt;&lt;/font&gt;" style="rounded=1;whiteSpace=wrap;html=1;fillColor=#666666;strokeColor=none;" vertex="1" parent="1">
          <mxGeometry x="1170" y="450" width="100" height="50" as="geometry"/>
        </mxCell>
        <mxCell id="bwAEqejOgfns9-r_lzPc-146" value="&lt;font color=&quot;#ffffff&quot;&gt;&lt;span style=&quot;font-size: 16px&quot;&gt;战斗初始化&lt;br&gt;&lt;/span&gt;&lt;/font&gt;" style="rounded=1;whiteSpace=wrap;html=1;fillColor=#6C8EBF;strokeColor=none;" vertex="1" parent="1">
          <mxGeometry x="840" y="290" width="100" height="50" as="geometry"/>
        </mxCell>
        <mxCell id="bwAEqejOgfns9-r_lzPc-147" value="&lt;font color=&quot;#ffffff&quot;&gt;&lt;span style=&quot;font-size: 16px&quot;&gt;战斗开始&lt;br&gt;&lt;/span&gt;&lt;/font&gt;" style="rounded=1;whiteSpace=wrap;html=1;fillColor=#6C8EBF;strokeColor=none;" vertex="1" parent="1">
          <mxGeometry x="950" y="290" width="100" height="50" as="geometry"/>
        </mxCell>
        <mxCell id="bwAEqejOgfns9-r_lzPc-148" value="&lt;font color=&quot;#ffffff&quot;&gt;&lt;span style=&quot;font-size: 16px&quot;&gt;回合表演&lt;br&gt;&lt;/span&gt;&lt;/font&gt;" style="rounded=1;whiteSpace=wrap;html=1;fillColor=#6C8EBF;strokeColor=none;" vertex="1" parent="1">
          <mxGeometry x="1060" y="290" width="100" height="50" as="geometry"/>
        </mxCell>
        <mxCell id="bwAEqejOgfns9-r_lzPc-149" value="&lt;font color=&quot;#ffffff&quot;&gt;&lt;span style=&quot;font-size: 16px&quot;&gt;退出战斗&lt;br&gt;&lt;/span&gt;&lt;/font&gt;" style="rounded=1;whiteSpace=wrap;html=1;fillColor=#6C8EBF;strokeColor=none;" vertex="1" parent="1">
          <mxGeometry x="1170" y="290" width="100" height="50" as="geometry"/>
        </mxCell>
        <mxCell id="bwAEqejOgfns9-r_lzPc-150" value="&lt;font color=&quot;#ffffff&quot;&gt;&lt;span style=&quot;font-size: 16px&quot;&gt;UI管理器&lt;br&gt;&lt;/span&gt;&lt;/font&gt;" style="rounded=1;whiteSpace=wrap;html=1;fillColor=#6C8EBF;strokeColor=none;" vertex="1" parent="1">
          <mxGeometry x="950" y="393" width="100" height="50" as="geometry"/>
        </mxCell>
        <mxCell id="bwAEqejOgfns9-r_lzPc-151" value="&lt;font color=&quot;#ffffff&quot;&gt;&lt;span style=&quot;font-size: 16px&quot;&gt;单位管理器&lt;br&gt;&lt;/span&gt;&lt;/font&gt;" style="rounded=1;whiteSpace=wrap;html=1;fillColor=#6C8EBF;strokeColor=none;" vertex="1" parent="1">
          <mxGeometry x="1060" y="393" width="100" height="50" as="geometry"/>
        </mxCell>
        <mxCell id="bwAEqejOgfns9-r_lzPc-152" value="&lt;font color=&quot;#ffffff&quot;&gt;&lt;span style=&quot;font-size: 16px&quot;&gt;技能管理器&lt;br&gt;&lt;/span&gt;&lt;/font&gt;" style="rounded=1;whiteSpace=wrap;html=1;fillColor=#6C8EBF;strokeColor=none;" vertex="1" parent="1">
          <mxGeometry x="1170" y="393" width="100" height="50" as="geometry"/>
        </mxCell>
        <mxCell id="bwAEqejOgfns9-r_lzPc-153" value="" style="rounded=1;whiteSpace=wrap;html=1;fillColor=#dae8fc;strokeColor=#6c8ebf;" vertex="1" parent="1">
          <mxGeometry x="828" y="130" width="453" height="110" as="geometry"/>
        </mxCell>
        <mxCell id="bwAEqejOgfns9-r_lzPc-154" value="&lt;font color=&quot;#666666&quot;&gt;&lt;b&gt;&lt;span style=&quot;font-size: 26px&quot;&gt;技能表演脚本&lt;/span&gt;&lt;font style=&quot;font-size: 20px&quot;&gt;（60+个Flux Script）&lt;/font&gt;&lt;/b&gt;&lt;/font&gt;" style="text;html=1;strokeColor=none;fillColor=none;align=center;verticalAlign=middle;whiteSpace=wrap;rounded=0;shadow=1;glass=0;comic=0;" vertex="1" parent="1">
          <mxGeometry x="837" y="140" width="446" height="20" as="geometry"/>
        </mxCell>
        <mxCell id="bwAEqejOgfns9-r_lzPc-155" value="&lt;font color=&quot;#ffffff&quot;&gt;&lt;span style=&quot;font-size: 16px&quot;&gt;资源编辑器&lt;br&gt;&lt;/span&gt;&lt;/font&gt;" style="rounded=1;whiteSpace=wrap;html=1;fillColor=#666666;strokeColor=none;" vertex="1" parent="1">
          <mxGeometry x="950" y="450" width="100" height="50" as="geometry"/>
        </mxCell>
        <mxCell id="bwAEqejOgfns9-r_lzPc-156" value="&lt;font color=&quot;#ffffff&quot;&gt;&lt;span style=&quot;font-size: 16px&quot;&gt;回合管理器&lt;br&gt;&lt;/span&gt;&lt;/font&gt;" style="rounded=1;whiteSpace=wrap;html=1;fillColor=#6C8EBF;strokeColor=none;" vertex="1" parent="1">
          <mxGeometry x="840" y="450" width="100" height="50" as="geometry"/>
        </mxCell>
        <mxCell id="bwAEqejOgfns9-r_lzPc-157" value="&lt;font color=&quot;#ffffff&quot;&gt;&lt;span style=&quot;font-size: 16px&quot;&gt;移动&lt;br&gt;&lt;/span&gt;&lt;/font&gt;" style="rounded=1;whiteSpace=wrap;html=1;fillColor=#6C8EBF;strokeColor=none;" vertex="1" parent="1">
          <mxGeometry x="840" y="180" width="100" height="50" as="geometry"/>
        </mxCell>
        <mxCell id="bwAEqejOgfns9-r_lzPc-158" value="&lt;font color=&quot;#ffffff&quot;&gt;&lt;span style=&quot;font-size: 16px&quot;&gt;动作播放&lt;br&gt;&lt;/span&gt;&lt;/font&gt;" style="rounded=1;whiteSpace=wrap;html=1;fillColor=#6C8EBF;strokeColor=none;" vertex="1" parent="1">
          <mxGeometry x="950" y="180" width="100" height="50" as="geometry"/>
        </mxCell>
        <mxCell id="bwAEqejOgfns9-r_lzPc-159" value="&lt;font color=&quot;#ffffff&quot;&gt;&lt;span style=&quot;font-size: 16px&quot;&gt;受击&lt;br&gt;&lt;/span&gt;&lt;/font&gt;" style="rounded=1;whiteSpace=wrap;html=1;fillColor=#6C8EBF;strokeColor=none;" vertex="1" parent="1">
          <mxGeometry x="1060" y="180" width="100" height="50" as="geometry"/>
        </mxCell>
        <mxCell id="bwAEqejOgfns9-r_lzPc-160" value="&lt;font color=&quot;#ffffff&quot;&gt;&lt;span style=&quot;font-size: 16px&quot;&gt;喊话&lt;br&gt;&lt;/span&gt;&lt;/font&gt;" style="rounded=1;whiteSpace=wrap;html=1;fillColor=#6C8EBF;strokeColor=none;" vertex="1" parent="1">
          <mxGeometry x="1170" y="180" width="100" height="50" as="geometry"/>
        </mxCell>
        <mxCell id="bwAEqejOgfns9-r_lzPc-161" value="" style="rounded=1;whiteSpace=wrap;html=1;fillColor=#dae8fc;strokeColor=#6c8ebf;" vertex="1" parent="1">
          <mxGeometry x="827" y="20" width="453" height="110" as="geometry"/>
        </mxCell>
        <mxCell id="bwAEqejOgfns9-r_lzPc-162" value="&lt;font color=&quot;#666666&quot;&gt;&lt;span style=&quot;font-size: 26px&quot;&gt;&lt;b&gt;战斗功能&lt;/b&gt;&lt;/span&gt;&lt;/font&gt;" style="text;html=1;strokeColor=none;fillColor=none;align=center;verticalAlign=middle;whiteSpace=wrap;rounded=0;shadow=1;glass=0;comic=0;" vertex="1" parent="1">
          <mxGeometry x="831.5" y="30" width="446" height="20" as="geometry"/>
        </mxCell>
      </root>
    </mxGraphModel>
  </diagram>
</mxfile>
